<svg width="192" height="192" viewBox="0 0 192 192" fill="none" xmlns="http://www.w3.org/2000/svg">
  <!-- Background with Venezuelan colors -->
  <rect width="192" height="192" rx="32" fill="#FFD700"/>
  
  <!-- Main book/dictionary -->
  <rect x="32" y="48" width="128" height="96" rx="8" fill="#FFFFFF" stroke="#CF1020" stroke-width="4"/>
  
  <!-- Book pages -->
  <rect x="40" y="56" width="112" height="4" fill="#CF1020"/>
  <rect x="40" y="68" width="96" height="4" fill="#0072CE"/>
  <rect x="40" y="80" width="104" height="4" fill="#0072CE"/>
  <rect x="40" y="92" width="88" height="4" fill="#0072CE"/>
  <rect x="40" y="104" width="100" height="4" fill="#0072CE"/>
  <rect x="40" y="116" width="84" height="4" fill="#0072CE"/>
  <rect x="40" y="128" width="92" height="4" fill="#0072CE"/>
  
  <!-- Venezuelan flag elements -->
  <rect x="32" y="32" width="128" height="8" fill="#FFD700"/>
  <rect x="32" y="40" width="128" height="8" fill="#0072CE"/>
  <rect x="32" y="48" width="128" height="8" fill="#CF1020"/>
  
  <!-- Star -->
  <polygon points="96,16 100.8,28.8 115.2,28.8 103.2,38.4 108,51.2 96,41.6 84,51.2 88.8,38.4 76.8,28.8 91.2,28.8" fill="#FFFFFF"/>
  
  <!-- Speech bubble for language -->
  <ellipse cx="152" cy="72" rx="24" ry="20" fill="#FFD700" stroke="#CF1020" stroke-width="3"/>
  <path d="M144 84 L152 96 L160 84" fill="#FFD700" stroke="#CF1020" stroke-width="3"/>
  
  <!-- Text inside speech bubble -->
  <text x="152" y="78" text-anchor="middle" fill="#CF1020" font-family="Arial, sans-serif" font-size="16" font-weight="bold">VE</text>
</svg>